# Goxel 0.15.1
v 9 1 -17 0.874510 0.443137 0.149020
v 8 1 -17 0.874510 0.443137 0.149020
v 8 2 -17 0.874510 0.443137 0.149020
v 9 2 -17 0.874510 0.443137 0.149020
v 8 1 -16 0.874510 0.443137 0.149020
v 9 1 -16 0.874510 0.443137 0.149020
v 8 2 -16 0.874510 0.443137 0.149020
v 10 1 -17 0.874510 0.443137 0.149020
v 10 2 -17 0.874510 0.443137 0.149020
v 10 1 -16 0.874510 0.443137 0.149020
v 11 1 -17 0.874510 0.443137 0.149020
v 11 2 -17 0.874510 0.443137 0.149020
v 11 1 -16 0.874510 0.443137 0.149020
v 12 1 -17 0.874510 0.443137 0.149020
v 12 2 -17 0.874510 0.443137 0.149020
v 12 1 -16 0.874510 0.443137 0.149020
v 12 2 -16 0.874510 0.443137 0.149020
v 5 2 -17 0.984314 0.949020 0.211765
v 4 2 -17 0.984314 0.949020 0.211765
v 4 3 -17 0.984314 0.949020 0.211765
v 5 3 -17 0.984314 0.949020 0.211765
v 4 2 -16 0.984314 0.949020 0.211765
v 5 2 -16 0.984314 0.949020 0.211765
v 4 3 -16 0.984314 0.949020 0.211765
v 5 2 -16 0.874510 0.443137 0.149020
v 5 2 -17 0.874510 0.443137 0.149020
v 6 2 -17 0.874510 0.443137 0.149020
v 6 2 -16 0.874510 0.443137 0.149020
v 7 2 -17 0.874510 0.443137 0.149020
v 7 2 -16 0.874510 0.443137 0.149020
v 13 2 -17 0.874510 0.443137 0.149020
v 13 2 -16 0.874510 0.443137 0.149020
v 14 2 -17 0.874510 0.443137 0.149020
v 14 2 -16 0.874510 0.443137 0.149020
v 15 2 -17 0.874510 0.443137 0.149020
v 15 2 -16 0.874510 0.443137 0.149020
v 16 2 -17 0.984314 0.949020 0.211765
v 15 2 -17 0.984314 0.949020 0.211765
v 15 3 -17 0.984314 0.949020 0.211765
v 16 3 -17 0.984314 0.949020 0.211765
v 15 2 -16 0.984314 0.949020 0.211765
v 16 2 -16 0.984314 0.949020 0.211765
v 16 3 -16 0.984314 0.949020 0.211765
v 6 2 -18 0.984314 0.949020 0.211765
v 5 2 -18 0.984314 0.949020 0.211765
v 5 3 -18 0.984314 0.949020 0.211765
v 6 3 -18 0.984314 0.949020 0.211765
v 6 2 -17 0.984314 0.949020 0.211765
v 7 2 -18 0.984314 0.949020 0.211765
v 7 3 -18 0.984314 0.949020 0.211765
v 7 2 -17 0.984314 0.949020 0.211765
v 7 2 -18 0.874510 0.443137 0.149020
v 8 2 -18 0.874510 0.443137 0.149020
v 9 2 -18 0.874510 0.443137 0.149020
v 10 2 -18 0.874510 0.443137 0.149020
v 11 2 -18 0.874510 0.443137 0.149020
v 12 2 -18 0.874510 0.443137 0.149020
v 13 2 -18 0.874510 0.443137 0.149020
v 14 2 -18 0.984314 0.949020 0.211765
v 13 2 -18 0.984314 0.949020 0.211765
v 13 3 -18 0.984314 0.949020 0.211765
v 14 3 -18 0.984314 0.949020 0.211765
v 13 2 -17 0.984314 0.949020 0.211765
v 14 2 -17 0.984314 0.949020 0.211765
v 15 2 -18 0.984314 0.949020 0.211765
v 15 3 -18 0.984314 0.949020 0.211765
v 8 2 -19 0.984314 0.949020 0.211765
v 7 2 -19 0.984314 0.949020 0.211765
v 7 3 -19 0.984314 0.949020 0.211765
v 8 3 -19 0.984314 0.949020 0.211765
v 8 2 -18 0.984314 0.949020 0.211765
v 9 2 -19 0.984314 0.949020 0.211765
v 9 3 -19 0.984314 0.949020 0.211765
v 9 2 -18 0.984314 0.949020 0.211765
v 10 2 -19 0.984314 0.949020 0.211765
v 10 3 -19 0.984314 0.949020 0.211765
v 10 2 -18 0.984314 0.949020 0.211765
v 11 2 -19 0.984314 0.949020 0.211765
v 11 3 -19 0.984314 0.949020 0.211765
v 11 2 -18 0.984314 0.949020 0.211765
v 12 2 -19 0.984314 0.949020 0.211765
v 12 3 -19 0.984314 0.949020 0.211765
v 12 2 -18 0.984314 0.949020 0.211765
v 13 2 -19 0.984314 0.949020 0.211765
v 13 3 -19 0.984314 0.949020 0.211765
v 4 4 -17 0.984314 0.949020 0.211765
v 5 4 -17 0.984314 0.949020 0.211765
v 5 4 -16 0.984314 0.949020 0.211765
v 4 4 -16 0.984314 0.949020 0.211765
v 6 4 -16 0.984314 0.949020 0.211765
v 6 4 -17 0.984314 0.949020 0.211765
v 15 4 -16 0.984314 0.949020 0.211765
v 15 4 -17 0.984314 0.949020 0.211765
v 14 4 -17 0.984314 0.949020 0.211765
v 14 4 -16 0.984314 0.949020 0.211765
v 16 4 -17 0.984314 0.949020 0.211765
v 16 4 -16 0.984314 0.949020 0.211765
v 5 4 -18 0.984314 0.949020 0.211765
v 6 4 -18 0.984314 0.949020 0.211765
v 7 4 -18 0.984314 0.949020 0.211765
v 7 4 -17 0.984314 0.949020 0.211765
v 13 4 -18 0.984314 0.949020 0.211765
v 14 4 -18 0.984314 0.949020 0.211765
v 13 4 -17 0.984314 0.949020 0.211765
v 15 4 -18 0.984314 0.949020 0.211765
v 7 4 -19 0.984314 0.949020 0.211765
v 8 4 -19 0.984314 0.949020 0.211765
v 8 4 -18 0.984314 0.949020 0.211765
v 9 4 -19 0.984314 0.949020 0.211765
v 9 4 -18 0.984314 0.949020 0.211765
v 10 4 -19 0.984314 0.949020 0.211765
v 10 4 -18 0.984314 0.949020 0.211765
v 11 4 -19 0.984314 0.949020 0.211765
v 11 4 -18 0.984314 0.949020 0.211765
v 12 4 -19 0.984314 0.949020 0.211765
v 12 4 -18 0.984314 0.949020 0.211765
v 13 4 -19 0.984314 0.949020 0.211765
v 6 5 -17 0.984314 0.949020 0.211765
v 7 5 -17 0.984314 0.949020 0.211765
v 7 5 -16 0.984314 0.949020 0.211765
v 6 5 -16 0.984314 0.949020 0.211765
v 8 5 -16 0.984314 0.949020 0.211765
v 8 5 -17 0.984314 0.949020 0.211765
v 9 5 -16 0.984314 0.949020 0.211765
v 9 5 -17 0.984314 0.949020 0.211765
v 10 5 -16 0.984314 0.949020 0.211765
v 10 5 -17 0.984314 0.949020 0.211765
v 11 5 -16 0.984314 0.949020 0.211765
v 11 5 -17 0.984314 0.949020 0.211765
v 12 5 -16 0.984314 0.949020 0.211765
v 12 5 -17 0.984314 0.949020 0.211765
v 13 5 -16 0.984314 0.949020 0.211765
v 13 5 -17 0.984314 0.949020 0.211765
v 14 5 -17 0.984314 0.949020 0.211765
v 14 5 -16 0.984314 0.949020 0.211765
v 7 5 -18 0.984314 0.949020 0.211765
v 8 5 -18 0.984314 0.949020 0.211765
v 9 5 -18 0.984314 0.949020 0.211765
v 10 5 -18 0.984314 0.949020 0.211765
v 11 5 -18 0.984314 0.949020 0.211765
v 12 5 -18 0.984314 0.949020 0.211765
v 13 5 -18 0.984314 0.949020 0.211765
v 6 0 -5 0.000000 0.000000 0.000000
v 7 0 -5 0.000000 0.000000 0.000000
v 7 1 -5 0.000000 0.000000 0.000000
v 6 1 -5 0.000000 0.000000 0.000000
v 7 0 -6 0.000000 0.000000 0.000000
v 6 0 -6 0.000000 0.000000 0.000000
v 6 1 -6 0.000000 0.000000 0.000000
v 7 1 -6 0.000000 0.000000 0.000000
v 13 0 -5 0.000000 0.000000 0.000000
v 14 0 -5 0.000000 0.000000 0.000000
v 14 1 -5 0.000000 0.000000 0.000000
v 13 1 -5 0.000000 0.000000 0.000000
v 14 0 -6 0.000000 0.000000 0.000000
v 13 0 -6 0.000000 0.000000 0.000000
v 13 1 -6 0.000000 0.000000 0.000000
v 14 1 -6 0.000000 0.000000 0.000000
v 2 0 -12 0.000000 0.000000 0.000000
v 3 0 -12 0.000000 0.000000 0.000000
v 3 1 -12 0.000000 0.000000 0.000000
v 2 1 -12 0.000000 0.000000 0.000000
v 2 0 -13 0.000000 0.000000 0.000000
v 3 0 -13 0.000000 0.000000 0.000000
v 2 1 -13 0.000000 0.000000 0.000000
v 4 0 -12 0.000000 0.000000 0.000000
v 4 1 -12 0.000000 0.000000 0.000000
v 4 0 -13 0.000000 0.000000 0.000000
v 4 1 -13 0.000000 0.000000 0.000000
v 3 1 -13 0.000000 0.000000 0.000000
v 3 0 -14 0.000000 0.000000 0.000000
v 2 0 -14 0.000000 0.000000 0.000000
v 2 1 -14 0.000000 0.000000 0.000000
v 3 1 -14 0.000000 0.000000 0.000000
v 4 0 -14 0.000000 0.000000 0.000000
v 4 1 -14 0.000000 0.000000 0.000000
v 6 1 -4 0.000000 0.000000 0.000000
v 7 1 -4 0.000000 0.000000 0.000000
v 7 2 -4 0.000000 0.000000 0.000000
v 6 2 -4 0.000000 0.000000 0.000000
v 7 2 -5 0.000000 0.000000 0.000000
v 6 2 -5 0.000000 0.000000 0.000000
v 13 1 -4 0.000000 0.000000 0.000000
v 14 1 -4 0.000000 0.000000 0.000000
v 14 2 -4 0.000000 0.000000 0.000000
v 13 2 -4 0.000000 0.000000 0.000000
v 14 2 -5 0.000000 0.000000 0.000000
v 13 2 -5 0.000000 0.000000 0.000000
v 7 2 -6 0.000000 0.000000 0.000000
v 6 2 -6 0.000000 0.000000 0.000000
v 8 1 -5 0.874510 0.443137 0.149020
v 9 1 -5 0.874510 0.443137 0.149020
v 9 2 -5 0.874510 0.443137 0.149020
v 8 2 -5 0.874510 0.443137 0.149020
v 8 1 -6 0.874510 0.443137 0.149020
v 9 1 -6 0.874510 0.443137 0.149020
v 8 2 -6 0.874510 0.443137 0.149020
v 10 1 -5 0.874510 0.443137 0.149020
v 10 2 -5 0.874510 0.443137 0.149020
v 10 1 -6 0.874510 0.443137 0.149020
v 11 1 -5 0.874510 0.443137 0.149020
v 11 2 -5 0.874510 0.443137 0.149020
v 11 1 -6 0.874510 0.443137 0.149020
v 12 1 -5 0.874510 0.443137 0.149020
v 12 2 -5 0.874510 0.443137 0.149020
v 12 1 -6 0.874510 0.443137 0.149020
v 12 2 -6 0.874510 0.443137 0.149020
v 14 2 -6 0.000000 0.000000 0.000000
v 13 2 -6 0.000000 0.000000 0.000000
v 6 1 -7 0.000000 0.000000 0.000000
v 7 1 -7 0.000000 0.000000 0.000000
v 6 2 -7 0.000000 0.000000 0.000000
v 7 1 -6 0.874510 0.443137 0.149020
v 7 2 -6 0.874510 0.443137 0.149020
v 7 1 -7 0.874510 0.443137 0.149020
v 8 1 -7 0.874510 0.443137 0.149020
v 9 1 -7 0.874510 0.443137 0.149020
v 10 1 -7 0.874510 0.443137 0.149020
v 11 1 -7 0.874510 0.443137 0.149020
v 12 1 -7 0.874510 0.443137 0.149020
v 13 1 -6 0.874510 0.443137 0.149020
v 13 2 -6 0.874510 0.443137 0.149020
v 13 1 -7 0.874510 0.443137 0.149020
v 13 1 -7 0.000000 0.000000 0.000000
v 14 1 -7 0.000000 0.000000 0.000000
v 14 2 -7 0.000000 0.000000 0.000000
v 5 1 -7 0.874510 0.443137 0.149020
v 6 1 -7 0.874510 0.443137 0.149020
v 6 2 -7 0.874510 0.443137 0.149020
v 5 2 -7 0.874510 0.443137 0.149020
v 5 1 -8 0.874510 0.443137 0.149020
v 6 1 -8 0.874510 0.443137 0.149020
v 5 2 -8 0.874510 0.443137 0.149020
v 7 1 -8 0.874510 0.443137 0.149020
v 8 1 -8 0.874510 0.443137 0.149020
v 9 1 -8 0.874510 0.443137 0.149020
v 10 1 -8 0.874510 0.443137 0.149020
v 11 1 -8 0.874510 0.443137 0.149020
v 12 1 -8 0.874510 0.443137 0.149020
v 13 1 -8 0.874510 0.443137 0.149020
v 14 1 -8 0.874510 0.443137 0.149020
v 14 1 -7 0.874510 0.443137 0.149020
v 15 1 -7 0.874510 0.443137 0.149020
v 15 2 -7 0.874510 0.443137 0.149020
v 14 2 -7 0.874510 0.443137 0.149020
v 15 1 -8 0.874510 0.443137 0.149020
v 15 2 -8 0.874510 0.443137 0.149020
v 5 1 -9 0.874510 0.443137 0.149020
v 6 1 -9 0.874510 0.443137 0.149020
v 5 2 -9 0.874510 0.443137 0.149020
v 7 1 -9 0.874510 0.443137 0.149020
v 8 1 -9 0.874510 0.443137 0.149020
v 9 1 -9 0.874510 0.443137 0.149020
v 10 1 -9 0.874510 0.443137 0.149020
v 11 1 -9 0.874510 0.443137 0.149020
v 12 1 -9 0.874510 0.443137 0.149020
v 13 1 -9 0.874510 0.443137 0.149020
v 14 1 -9 0.874510 0.443137 0.149020
v 15 1 -9 0.874510 0.443137 0.149020
v 15 2 -9 0.874510 0.443137 0.149020
v 4 1 -9 0.874510 0.443137 0.149020
v 4 2 -9 0.874510 0.443137 0.149020
v 4 1 -10 0.874510 0.443137 0.149020
v 5 1 -10 0.874510 0.443137 0.149020
v 4 2 -10 0.874510 0.443137 0.149020
v 6 1 -10 0.874510 0.443137 0.149020
v 7 1 -10 0.874510 0.443137 0.149020
v 8 1 -10 0.874510 0.443137 0.149020
v 9 1 -10 0.874510 0.443137 0.149020
v 10 1 -10 0.874510 0.443137 0.149020
v 11 1 -10 0.874510 0.443137 0.149020
v 12 1 -10 0.874510 0.443137 0.149020
v 13 1 -10 0.874510 0.443137 0.149020
v 14 1 -10 0.874510 0.443137 0.149020
v 15 1 -10 0.874510 0.443137 0.149020
v 16 1 -9 0.874510 0.443137 0.149020
v 16 2 -9 0.874510 0.443137 0.149020
v 16 1 -10 0.874510 0.443137 0.149020
v 16 2 -10 0.874510 0.443137 0.149020
v 4 1 -11 0.874510 0.443137 0.149020
v 5 1 -11 0.874510 0.443137 0.149020
v 4 2 -11 0.874510 0.443137 0.149020
v 6 1 -11 0.874510 0.443137 0.149020
v 7 1 -11 0.874510 0.443137 0.149020
v 8 1 -11 0.874510 0.443137 0.149020
v 9 1 -11 0.874510 0.443137 0.149020
v 10 1 -11 0.874510 0.443137 0.149020
v 11 1 -11 0.874510 0.443137 0.149020
v 12 1 -11 0.874510 0.443137 0.149020
v 13 1 -11 0.874510 0.443137 0.149020
v 14 1 -11 0.874510 0.443137 0.149020
v 15 1 -11 0.874510 0.443137 0.149020
v 16 1 -11 0.874510 0.443137 0.149020
v 16 2 -11 0.874510 0.443137 0.149020
v 2 1 -11 0.000000 0.000000 0.000000
v 3 1 -11 0.000000 0.000000 0.000000
v 3 2 -11 0.000000 0.000000 0.000000
v 2 2 -11 0.000000 0.000000 0.000000
v 2 2 -12 0.000000 0.000000 0.000000
v 4 1 -11 0.000000 0.000000 0.000000
v 4 2 -11 0.000000 0.000000 0.000000
v 3 2 -12 0.000000 0.000000 0.000000
v 4 2 -12 0.000000 0.000000 0.000000
v 4 1 -12 0.874510 0.443137 0.149020
v 5 1 -12 0.874510 0.443137 0.149020
v 6 1 -12 0.874510 0.443137 0.149020
v 7 1 -12 0.874510 0.443137 0.149020
v 8 1 -12 0.874510 0.443137 0.149020
v 9 1 -12 0.874510 0.443137 0.149020
v 10 1 -12 0.874510 0.443137 0.149020
v 11 1 -12 0.874510 0.443137 0.149020
v 12 1 -12 0.874510 0.443137 0.149020
v 13 1 -12 0.874510 0.443137 0.149020
v 14 1 -12 0.874510 0.443137 0.149020
v 15 1 -12 0.874510 0.443137 0.149020
v 16 1 -12 0.874510 0.443137 0.149020
v 3 2 -13 0.000000 0.000000 0.000000
v 2 2 -13 0.000000 0.000000 0.000000
v 5 1 -13 0.874510 0.443137 0.149020
v 4 1 -13 0.874510 0.443137 0.149020
v 4 2 -13 0.874510 0.443137 0.149020
v 5 2 -13 0.874510 0.443137 0.149020
v 4 2 -12 0.874510 0.443137 0.149020
v 6 1 -13 0.874510 0.443137 0.149020
v 7 1 -13 0.874510 0.443137 0.149020
v 8 1 -13 0.874510 0.443137 0.149020
v 9 1 -13 0.874510 0.443137 0.149020
v 10 1 -13 0.874510 0.443137 0.149020
v 11 1 -13 0.874510 0.443137 0.149020
v 12 1 -13 0.874510 0.443137 0.149020
v 13 1 -13 0.874510 0.443137 0.149020
v 14 1 -13 0.874510 0.443137 0.149020
v 15 1 -13 0.874510 0.443137 0.149020
v 16 1 -13 0.874510 0.443137 0.149020
v 15 2 -13 0.874510 0.443137 0.149020
v 16 2 -13 0.874510 0.443137 0.149020
v 16 2 -12 0.874510 0.443137 0.149020
v 3 2 -14 0.000000 0.000000 0.000000
v 2 2 -14 0.000000 0.000000 0.000000
v 5 1 -14 0.874510 0.443137 0.149020
v 6 1 -14 0.874510 0.443137 0.149020
v 5 2 -14 0.874510 0.443137 0.149020
v 7 1 -14 0.874510 0.443137 0.149020
v 8 1 -14 0.874510 0.443137 0.149020
v 9 1 -14 0.874510 0.443137 0.149020
v 10 1 -14 0.874510 0.443137 0.149020
v 11 1 -14 0.874510 0.443137 0.149020
v 12 1 -14 0.874510 0.443137 0.149020
v 13 1 -14 0.874510 0.443137 0.149020
v 14 1 -14 0.874510 0.443137 0.149020
v 15 1 -14 0.874510 0.443137 0.149020
v 15 2 -14 0.874510 0.443137 0.149020
v 3 1 -15 0.000000 0.000000 0.000000
v 2 1 -15 0.000000 0.000000 0.000000
v 2 2 -15 0.000000 0.000000 0.000000
v 3 2 -15 0.000000 0.000000 0.000000
v 4 2 -14 0.000000 0.000000 0.000000
v 4 1 -15 0.000000 0.000000 0.000000
v 4 2 -15 0.000000 0.000000 0.000000
v 6 1 -15 0.874510 0.443137 0.149020
v 5 1 -15 0.874510 0.443137 0.149020
v 5 2 -15 0.874510 0.443137 0.149020
v 6 2 -15 0.874510 0.443137 0.149020
v 7 1 -15 0.874510 0.443137 0.149020
v 8 1 -15 0.874510 0.443137 0.149020
v 9 1 -15 0.874510 0.443137 0.149020
v 10 1 -15 0.874510 0.443137 0.149020
v 11 1 -15 0.874510 0.443137 0.149020
v 12 1 -15 0.874510 0.443137 0.149020
v 13 1 -15 0.874510 0.443137 0.149020
v 14 1 -15 0.874510 0.443137 0.149020
v 15 1 -15 0.874510 0.443137 0.149020
v 14 2 -15 0.874510 0.443137 0.149020
v 15 2 -15 0.874510 0.443137 0.149020
v 7 1 -16 0.874510 0.443137 0.149020
v 6 1 -16 0.874510 0.443137 0.149020
v 13 1 -16 0.874510 0.443137 0.149020
v 14 1 -16 0.874510 0.443137 0.149020
v 7 2 -3 0.000000 0.000000 0.000000
v 8 2 -3 0.000000 0.000000 0.000000
v 8 3 -3 0.000000 0.000000 0.000000
v 7 3 -3 0.000000 0.000000 0.000000
v 8 2 -4 0.000000 0.000000 0.000000
v 7 3 -4 0.000000 0.000000 0.000000
v 9 2 -3 0.000000 0.000000 0.000000
v 9 3 -3 0.000000 0.000000 0.000000
v 9 2 -4 0.000000 0.000000 0.000000
v 10 2 -3 0.000000 0.000000 0.000000
v 10 3 -3 0.000000 0.000000 0.000000
v 10 2 -4 0.000000 0.000000 0.000000
v 11 2 -3 0.000000 0.000000 0.000000
v 11 3 -3 0.000000 0.000000 0.000000
v 11 2 -4 0.000000 0.000000 0.000000
v 12 2 -3 0.000000 0.000000 0.000000
v 12 3 -3 0.000000 0.000000 0.000000
v 12 2 -4 0.000000 0.000000 0.000000
v 13 2 -3 0.000000 0.000000 0.000000
v 13 3 -3 0.000000 0.000000 0.000000
v 13 3 -4 0.000000 0.000000 0.000000
v 5 2 -4 0.984314 0.949020 0.211765
v 6 2 -4 0.984314 0.949020 0.211765
v 6 3 -4 0.984314 0.949020 0.211765
v 5 3 -4 0.984314 0.949020 0.211765
v 5 2 -5 0.984314 0.949020 0.211765
v 6 2 -5 0.984314 0.949020 0.211765
v 5 3 -5 0.984314 0.949020 0.211765
v 6 3 -4 0.000000 0.000000 0.000000
v 7 2 -4 0.874510 0.443137 0.149020
v 7 2 -5 0.874510 0.443137 0.149020
v 8 2 -4 0.874510 0.443137 0.149020
v 9 2 -4 0.874510 0.443137 0.149020
v 10 2 -4 0.874510 0.443137 0.149020
v 11 2 -4 0.874510 0.443137 0.149020
v 12 2 -4 0.874510 0.443137 0.149020
v 13 2 -5 0.874510 0.443137 0.149020
v 13 2 -4 0.874510 0.443137 0.149020
v 14 3 -4 0.000000 0.000000 0.000000
v 14 2 -4 0.984314 0.949020 0.211765
v 15 2 -4 0.984314 0.949020 0.211765
v 15 3 -4 0.984314 0.949020 0.211765
v 14 3 -4 0.984314 0.949020 0.211765
v 14 2 -5 0.984314 0.949020 0.211765
v 15 2 -5 0.984314 0.949020 0.211765
v 15 3 -5 0.984314 0.949020 0.211765
v 4 2 -5 0.984314 0.949020 0.211765
v 4 3 -5 0.984314 0.949020 0.211765
v 4 2 -6 0.984314 0.949020 0.211765
v 5 2 -6 0.984314 0.949020 0.211765
v 4 3 -6 0.984314 0.949020 0.211765
v 5 2 -5 0.874510 0.443137 0.149020
v 5 2 -6 0.874510 0.443137 0.149020
v 6 2 -6 0.874510 0.443137 0.149020
v 6 2 -5 0.874510 0.443137 0.149020
v 14 2 -5 0.874510 0.443137 0.149020
v 14 2 -6 0.874510 0.443137 0.149020
v 15 2 -6 0.874510 0.443137 0.149020
v 15 2 -5 0.874510 0.443137 0.149020
v 16 2 -5 0.984314 0.949020 0.211765
v 16 3 -5 0.984314 0.949020 0.211765
v 15 2 -6 0.984314 0.949020 0.211765
v 16 2 -6 0.984314 0.949020 0.211765
v 16 3 -6 0.984314 0.949020 0.211765
v 3 2 -6 0.984314 0.949020 0.211765
v 3 3 -6 0.984314 0.949020 0.211765
v 3 2 -7 0.984314 0.949020 0.211765
v 4 2 -7 0.984314 0.949020 0.211765
v 3 3 -7 0.984314 0.949020 0.211765
v 4 2 -6 0.874510 0.443137 0.149020
v 4 2 -7 0.874510 0.443137 0.149020
v 16 2 -7 0.874510 0.443137 0.149020
v 16 2 -6 0.874510 0.443137 0.149020
v 3 2 -8 0.984314 0.949020 0.211765
v 4 2 -8 0.984314 0.949020 0.211765
v 3 3 -8 0.984314 0.949020 0.211765
v 4 2 -8 0.874510 0.443137 0.149020
v 16 2 -8 0.874510 0.443137 0.149020
v 2 2 -8 0.984314 0.949020 0.211765
v 2 3 -8 0.984314 0.949020 0.211765
v 2 2 -9 0.984314 0.949020 0.211765
v 3 2 -9 0.984314 0.949020 0.211765
v 2 3 -9 0.984314 0.949020 0.211765
v 3 2 -8 0.874510 0.443137 0.149020
v 3 2 -9 0.874510 0.443137 0.149020
v 2 2 -10 0.984314 0.949020 0.211765
v 3 2 -10 0.984314 0.949020 0.211765
v 2 3 -10 0.984314 0.949020 0.211765
v 3 2 -10 0.874510 0.443137 0.149020
v 2 2 -11 0.984314 0.949020 0.211765
v 3 2 -11 0.984314 0.949020 0.211765
v 2 3 -11 0.984314 0.949020 0.211765
v 3 2 -11 0.874510 0.443137 0.149020
v 2 3 -11 0.000000 0.000000 0.000000
v 2 3 -12 0.000000 0.000000 0.000000
v 2 3 -13 0.000000 0.000000 0.000000
v 3 2 -12 0.874510 0.443137 0.149020
v 3 2 -13 0.874510 0.443137 0.149020
v 2 3 -14 0.000000 0.000000 0.000000
v 3 2 -14 0.874510 0.443137 0.149020
v 4 2 -14 0.874510 0.443137 0.149020
v 16 2 -14 0.874510 0.443137 0.149020
v 2 3 -15 0.000000 0.000000 0.000000
v 3 3 -15 0.000000 0.000000 0.000000
v 3 3 -14 0.000000 0.000000 0.000000
v 4 2 -15 0.874510 0.443137 0.149020
v 16 2 -15 0.874510 0.443137 0.149020
v 3 2 -16 0.984314 0.949020 0.211765
v 3 3 -16 0.984314 0.949020 0.211765
v 3 2 -15 0.984314 0.949020 0.211765
v 4 2 -15 0.984314 0.949020 0.211765
v 3 3 -15 0.984314 0.949020 0.211765
v 4 2 -16 0.874510 0.443137 0.149020
v 16 2 -16 0.874510 0.443137 0.149020
v 8 4 -3 0.000000 0.000000 0.000000
v 7 4 -3 0.000000 0.000000 0.000000
v 8 4 -4 0.000000 0.000000 0.000000
v 7 4 -4 0.000000 0.000000 0.000000
v 9 4 -3 0.000000 0.000000 0.000000
v 9 4 -4 0.000000 0.000000 0.000000
v 10 4 -3 0.000000 0.000000 0.000000
v 10 4 -4 0.000000 0.000000 0.000000
v 11 4 -3 0.000000 0.000000 0.000000
v 11 4 -4 0.000000 0.000000 0.000000
v 12 4 -3 0.000000 0.000000 0.000000
v 12 4 -4 0.000000 0.000000 0.000000
v 13 4 -3 0.000000 0.000000 0.000000
v 13 4 -4 0.000000 0.000000 0.000000
v 6 4 -4 0.984314 0.949020 0.211765
v 5 4 -4 0.984314 0.949020 0.211765
v 6 4 -5 0.984314 0.949020 0.211765
v 5 4 -5 0.984314 0.949020 0.211765
v 6 4 -4 0.000000 0.000000 0.000000
v 7 4 -5 0.000000 0.000000 0.000000
v 6 4 -5 0.000000 0.000000 0.000000
v 14 4 -4 0.000000 0.000000 0.000000
v 14 4 -5 0.000000 0.000000 0.000000
v 13 4 -5 0.000000 0.000000 0.000000
v 15 4 -4 0.984314 0.949020 0.211765
v 14 4 -4 0.984314 0.949020 0.211765
v 15 4 -5 0.984314 0.949020 0.211765
v 14 4 -5 0.984314 0.949020 0.211765
v 4 4 -5 0.984314 0.949020 0.211765
v 5 4 -6 0.984314 0.949020 0.211765
v 4 4 -6 0.984314 0.949020 0.211765
v 6 4 -6 0.984314 0.949020 0.211765
v 15 4 -6 0.984314 0.949020 0.211765
v 14 4 -6 0.984314 0.949020 0.211765
v 16 4 -5 0.984314 0.949020 0.211765
v 16 4 -6 0.984314 0.949020 0.211765
v 3 4 -6 0.984314 0.949020 0.211765
v 4 4 -7 0.984314 0.949020 0.211765
v 3 4 -7 0.984314 0.949020 0.211765
v 5 4 -7 0.984314 0.949020 0.211765
v 16 4 -7 0.984314 0.949020 0.211765
v 15 4 -7 0.984314 0.949020 0.211765
v 4 4 -8 0.984314 0.949020 0.211765
v 3 4 -8 0.984314 0.949020 0.211765
v 2 4 -8 0.984314 0.949020 0.211765
v 3 4 -9 0.984314 0.949020 0.211765
v 2 4 -9 0.984314 0.949020 0.211765
v 3 4 -10 0.984314 0.949020 0.211765
v 2 4 -10 0.984314 0.949020 0.211765
v 3 4 -11 0.984314 0.949020 0.211765
v 2 4 -11 0.984314 0.949020 0.211765
v 3 4 -12 0.984314 0.949020 0.211765
v 2 4 -12 0.984314 0.949020 0.211765
v 2 3 -12 0.984314 0.949020 0.211765
v 3 4 -12 0.000000 0.000000 0.000000
v 3 4 -13 0.000000 0.000000 0.000000
v 2 4 -13 0.000000 0.000000 0.000000
v 2 4 -12 0.000000 0.000000 0.000000
v 2 4 -14 0.000000 0.000000 0.000000
v 3 4 -14 0.000000 0.000000 0.000000
v 4 4 -14 0.984314 0.949020 0.211765
v 4 4 -15 0.984314 0.949020 0.211765
v 3 4 -15 0.984314 0.949020 0.211765
v 3 4 -14 0.984314 0.949020 0.211765
v 3 3 -14 0.984314 0.949020 0.211765
v 3 4 -16 0.984314 0.949020 0.211765
v 5 4 -15 0.984314 0.949020 0.211765
v 16 4 -15 0.984314 0.949020 0.211765
v 15 4 -15 0.984314 0.949020 0.211765
v 8 5 -4 0.000000 0.000000 0.000000
v 7 5 -4 0.000000 0.000000 0.000000
v 8 5 -5 0.000000 0.000000 0.000000
v 7 5 -5 0.000000 0.000000 0.000000
v 9 5 -4 0.000000 0.000000 0.000000
v 9 5 -5 0.000000 0.000000 0.000000
v 10 5 -4 0.000000 0.000000 0.000000
v 10 5 -5 0.000000 0.000000 0.000000
v 11 5 -4 0.000000 0.000000 0.000000
v 11 5 -5 0.000000 0.000000 0.000000
v 12 5 -4 0.000000 0.000000 0.000000
v 12 5 -5 0.000000 0.000000 0.000000
v 13 5 -4 0.000000 0.000000 0.000000
v 13 5 -5 0.000000 0.000000 0.000000
v 6 5 -5 0.000000 0.000000 0.000000
v 7 5 -6 0.000000 0.000000 0.000000
v 6 5 -6 0.000000 0.000000 0.000000
v 6 4 -6 0.000000 0.000000 0.000000
v 8 5 -6 0.000000 0.000000 0.000000
v 9 5 -6 0.000000 0.000000 0.000000
v 10 5 -6 0.000000 0.000000 0.000000
v 11 5 -6 0.000000 0.000000 0.000000
v 12 5 -6 0.000000 0.000000 0.000000
v 13 5 -6 0.000000 0.000000 0.000000
v 14 5 -5 0.000000 0.000000 0.000000
v 14 5 -6 0.000000 0.000000 0.000000
v 14 4 -6 0.000000 0.000000 0.000000
v 6 5 -6 0.984314 0.949020 0.211765
v 5 5 -6 0.984314 0.949020 0.211765
v 6 5 -7 0.984314 0.949020 0.211765
v 5 5 -7 0.984314 0.949020 0.211765
v 7 5 -6 0.984314 0.949020 0.211765
v 7 5 -7 0.984314 0.949020 0.211765
v 8 5 -7 0.000000 0.000000 0.000000
v 7 5 -7 0.000000 0.000000 0.000000
v 13 5 -7 0.000000 0.000000 0.000000
v 12 5 -7 0.000000 0.000000 0.000000
v 14 5 -6 0.984314 0.949020 0.211765
v 14 5 -7 0.984314 0.949020 0.211765
v 13 5 -7 0.984314 0.949020 0.211765
v 13 5 -6 0.984314 0.949020 0.211765
v 15 5 -6 0.984314 0.949020 0.211765
v 15 5 -7 0.984314 0.949020 0.211765
v 4 5 -7 0.984314 0.949020 0.211765
v 5 5 -8 0.984314 0.949020 0.211765
v 4 5 -8 0.984314 0.949020 0.211765
v 6 5 -8 0.984314 0.949020 0.211765
v 15 5 -8 0.984314 0.949020 0.211765
v 14 5 -8 0.984314 0.949020 0.211765
v 16 5 -7 0.984314 0.949020 0.211765
v 16 5 -8 0.984314 0.949020 0.211765
v 16 4 -8 0.984314 0.949020 0.211765
v 3 5 -8 0.984314 0.949020 0.211765
v 4 5 -9 0.984314 0.949020 0.211765
v 3 5 -9 0.984314 0.949020 0.211765
v 5 5 -9 0.984314 0.949020 0.211765
v 6 5 -9 0.984314 0.949020 0.211765
v 15 5 -9 0.984314 0.949020 0.211765
v 14 5 -9 0.984314 0.949020 0.211765
v 16 5 -9 0.984314 0.949020 0.211765
v 4 5 -10 0.984314 0.949020 0.211765
v 3 5 -10 0.984314 0.949020 0.211765
v 5 5 -10 0.984314 0.949020 0.211765
v 16 5 -10 0.984314 0.949020 0.211765
v 15 5 -10 0.984314 0.949020 0.211765
v 4 5 -11 0.984314 0.949020 0.211765
v 3 5 -11 0.984314 0.949020 0.211765
v 5 5 -11 0.984314 0.949020 0.211765
v 16 5 -11 0.984314 0.949020 0.211765
v 15 5 -11 0.984314 0.949020 0.211765
v 4 5 -12 0.984314 0.949020 0.211765
v 3 5 -12 0.984314 0.949020 0.211765
v 5 5 -12 0.984314 0.949020 0.211765
v 16 5 -12 0.984314 0.949020 0.211765
v 15 5 -12 0.984314 0.949020 0.211765
v 4 5 -13 0.984314 0.949020 0.211765
v 3 5 -13 0.984314 0.949020 0.211765
v 3 4 -13 0.984314 0.949020 0.211765
v 5 5 -13 0.984314 0.949020 0.211765
v 16 5 -13 0.984314 0.949020 0.211765
v 15 5 -13 0.984314 0.949020 0.211765
v 3 5 -14 0.984314 0.949020 0.211765
v 4 5 -14 0.984314 0.949020 0.211765
v 5 5 -14 0.984314 0.949020 0.211765
v 6 5 -13 0.984314 0.949020 0.211765
v 6 5 -14 0.984314 0.949020 0.211765
v 15 5 -14 0.984314 0.949020 0.211765
v 14 5 -14 0.984314 0.949020 0.211765
v 14 5 -13 0.984314 0.949020 0.211765
v 16 5 -14 0.984314 0.949020 0.211765
v 4 5 -15 0.984314 0.949020 0.211765
v 5 5 -15 0.984314 0.949020 0.211765
v 6 5 -15 0.984314 0.949020 0.211765
v 15 5 -15 0.984314 0.949020 0.211765
v 14 5 -15 0.984314 0.949020 0.211765
v 16 5 -15 0.984314 0.949020 0.211765
v 16 4 -14 0.984314 0.949020 0.211765
v 5 5 -16 0.984314 0.949020 0.211765
v 7 5 -15 0.984314 0.949020 0.211765
v 8 5 -15 0.984314 0.949020 0.211765
v 13 5 -15 0.984314 0.949020 0.211765
v 12 5 -15 0.984314 0.949020 0.211765
v 15 5 -16 0.984314 0.949020 0.211765
v 9 6 -6 0.000000 0.000000 0.000000
v 8 6 -6 0.000000 0.000000 0.000000
v 9 6 -7 0.000000 0.000000 0.000000
v 8 6 -7 0.000000 0.000000 0.000000
v 10 6 -6 0.000000 0.000000 0.000000
v 10 6 -7 0.000000 0.000000 0.000000
v 11 6 -6 0.000000 0.000000 0.000000
v 11 6 -7 0.000000 0.000000 0.000000
v 12 6 -6 0.000000 0.000000 0.000000
v 12 6 -7 0.000000 0.000000 0.000000
v 7 6 -7 0.984314 0.949020 0.211765
v 6 6 -7 0.984314 0.949020 0.211765
v 7 6 -8 0.984314 0.949020 0.211765
v 6 6 -8 0.984314 0.949020 0.211765
v 7 6 -7 0.000000 0.000000 0.000000
v 8 6 -8 0.000000 0.000000 0.000000
v 7 6 -8 0.000000 0.000000 0.000000
v 9 6 -8 0.000000 0.000000 0.000000
v 12 6 -8 0.000000 0.000000 0.000000
v 11 6 -8 0.000000 0.000000 0.000000
v 13 6 -7 0.000000 0.000000 0.000000
v 13 6 -8 0.000000 0.000000 0.000000
v 14 6 -7 0.984314 0.949020 0.211765
v 13 6 -7 0.984314 0.949020 0.211765
v 14 6 -8 0.984314 0.949020 0.211765
v 13 6 -8 0.984314 0.949020 0.211765
v 7 6 -9 0.984314 0.949020 0.211765
v 6 6 -9 0.984314 0.949020 0.211765
v 8 6 -8 0.984314 0.949020 0.211765
v 8 6 -9 0.984314 0.949020 0.211765
v 13 6 -9 0.984314 0.949020 0.211765
v 12 6 -9 0.984314 0.949020 0.211765
v 12 6 -8 0.984314 0.949020 0.211765
v 14 6 -9 0.984314 0.949020 0.211765
v 5 6 -9 0.984314 0.949020 0.211765
v 6 6 -10 0.984314 0.949020 0.211765
v 5 6 -10 0.984314 0.949020 0.211765
v 7 6 -10 0.984314 0.949020 0.211765
v 8 6 -10 0.984314 0.949020 0.211765
v 13 6 -10 0.984314 0.949020 0.211765
v 12 6 -10 0.984314 0.949020 0.211765
v 14 6 -10 0.984314 0.949020 0.211765
v 15 6 -9 0.984314 0.949020 0.211765
v 15 6 -10 0.984314 0.949020 0.211765
v 6 6 -11 0.984314 0.949020 0.211765
v 5 6 -11 0.984314 0.949020 0.211765
v 7 6 -11 0.984314 0.949020 0.211765
v 8 6 -11 0.984314 0.949020 0.211765
v 9 6 -10 0.984314 0.949020 0.211765
v 9 6 -11 0.984314 0.949020 0.211765
v 12 6 -11 0.984314 0.949020 0.211765
v 11 6 -11 0.984314 0.949020 0.211765
v 11 6 -10 0.984314 0.949020 0.211765
v 13 6 -11 0.984314 0.949020 0.211765
v 14 6 -11 0.984314 0.949020 0.211765
v 15 6 -11 0.984314 0.949020 0.211765
v 6 6 -12 0.984314 0.949020 0.211765
v 5 6 -12 0.984314 0.949020 0.211765
v 7 6 -12 0.984314 0.949020 0.211765
v 8 6 -12 0.984314 0.949020 0.211765
v 9 6 -12 0.984314 0.949020 0.211765
v 10 6 -11 0.984314 0.949020 0.211765
v 10 6 -12 0.984314 0.949020 0.211765
v 11 6 -12 0.984314 0.949020 0.211765
v 12 6 -12 0.984314 0.949020 0.211765
v 13 6 -12 0.984314 0.949020 0.211765
v 14 6 -12 0.984314 0.949020 0.211765
v 15 6 -12 0.984314 0.949020 0.211765
v 5 6 -13 0.984314 0.949020 0.211765
v 6 6 -13 0.984314 0.949020 0.211765
v 7 6 -13 0.984314 0.949020 0.211765
v 8 6 -13 0.984314 0.949020 0.211765
v 9 6 -13 0.984314 0.949020 0.211765
v 10 6 -13 0.984314 0.949020 0.211765
v 11 6 -13 0.984314 0.949020 0.211765
v 12 6 -13 0.984314 0.949020 0.211765
v 13 6 -13 0.984314 0.949020 0.211765
v 14 6 -13 0.984314 0.949020 0.211765
v 15 6 -13 0.984314 0.949020 0.211765
v 7 6 -14 0.984314 0.949020 0.211765
v 6 6 -14 0.984314 0.949020 0.211765
v 8 6 -14 0.984314 0.949020 0.211765
v 9 6 -14 0.984314 0.949020 0.211765
v 10 6 -14 0.984314 0.949020 0.211765
v 11 6 -14 0.984314 0.949020 0.211765
v 12 6 -14 0.984314 0.949020 0.211765
v 13 6 -14 0.984314 0.949020 0.211765
v 14 6 -14 0.984314 0.949020 0.211765
v 6 6 -15 0.984314 0.949020 0.211765
v 7 6 -15 0.984314 0.949020 0.211765
v 8 6 -15 0.984314 0.949020 0.211765
v 9 6 -15 0.984314 0.949020 0.211765
v 10 6 -15 0.984314 0.949020 0.211765
v 11 6 -15 0.984314 0.949020 0.211765
v 12 6 -15 0.984314 0.949020 0.211765
v 13 6 -15 0.984314 0.949020 0.211765
v 14 6 -15 0.984314 0.949020 0.211765
v 8 6 -16 0.984314 0.949020 0.211765
v 9 6 -16 0.984314 0.949020 0.211765
v 10 6 -16 0.984314 0.949020 0.211765
v 11 6 -16 0.984314 0.949020 0.211765
v 12 6 -16 0.984314 0.949020 0.211765
v 9 6 -7 0.674510 0.196078 0.196078
v 10 6 -7 0.674510 0.196078 0.196078
v 10 7 -7 0.674510 0.196078 0.196078
v 9 7 -7 0.674510 0.196078 0.196078
v 9 7 -8 0.674510 0.196078 0.196078
v 9 6 -8 0.674510 0.196078 0.196078
v 11 6 -7 0.674510 0.196078 0.196078
v 11 7 -7 0.674510 0.196078 0.196078
v 11 6 -8 0.674510 0.196078 0.196078
v 11 7 -8 0.674510 0.196078 0.196078
v 9 7 -8 0.000000 0.000000 0.000000
v 8 7 -8 0.000000 0.000000 0.000000
v 8 7 -9 0.000000 0.000000 0.000000
v 8 6 -9 0.000000 0.000000 0.000000
v 12 7 -8 0.000000 0.000000 0.000000
v 11 7 -8 0.000000 0.000000 0.000000
v 12 6 -9 0.000000 0.000000 0.000000
v 12 7 -9 0.000000 0.000000 0.000000
v 9 6 -10 0.000000 0.000000 0.000000
v 8 6 -10 0.000000 0.000000 0.000000
v 8 7 -10 0.000000 0.000000 0.000000
v 9 7 -10 0.000000 0.000000 0.000000
v 12 6 -10 0.000000 0.000000 0.000000
v 11 6 -10 0.000000 0.000000 0.000000
v 11 7 -10 0.000000 0.000000 0.000000
v 12 7 -10 0.000000 0.000000 0.000000
v 10 6 -11 0.000000 0.000000 0.000000
v 9 6 -11 0.000000 0.000000 0.000000
v 9 7 -11 0.000000 0.000000 0.000000
v 10 7 -11 0.000000 0.000000 0.000000
v 11 6 -11 0.000000 0.000000 0.000000
v 11 7 -11 0.000000 0.000000 0.000000
v 9 7 -7 0.000000 0.000000 0.000000
v 10 7 -7 0.000000 0.000000 0.000000
v 10 8 -7 0.000000 0.000000 0.000000
v 9 8 -7 0.000000 0.000000 0.000000
v 10 8 -8 0.000000 0.000000 0.000000
v 9 8 -8 0.000000 0.000000 0.000000
v 11 7 -7 0.000000 0.000000 0.000000
v 11 8 -7 0.000000 0.000000 0.000000
v 11 8 -8 0.000000 0.000000 0.000000
v 8 8 -8 0.000000 0.000000 0.000000
v 9 8 -9 0.000000 0.000000 0.000000
v 8 8 -9 0.000000 0.000000 0.000000
v 10 8 -9 0.000000 0.000000 0.000000
v 11 8 -9 0.000000 0.000000 0.000000
v 12 8 -8 0.000000 0.000000 0.000000
v 12 8 -9 0.000000 0.000000 0.000000
v 8 8 -10 0.000000 0.000000 0.000000
v 9 8 -10 0.000000 0.000000 0.000000
v 10 8 -10 0.000000 0.000000 0.000000
v 11 8 -10 0.000000 0.000000 0.000000
v 12 8 -10 0.000000 0.000000 0.000000
v 9 8 -11 0.000000 0.000000 0.000000
v 10 8 -11 0.000000 0.000000 0.000000
v 11 8 -11 0.000000 0.000000 0.000000
v 16 0 -12 0.000000 0.000000 0.000000
v 17 0 -12 0.000000 0.000000 0.000000
v 17 1 -12 0.000000 0.000000 0.000000
v 16 1 -12 0.000000 0.000000 0.000000
v 16 0 -13 0.000000 0.000000 0.000000
v 17 0 -13 0.000000 0.000000 0.000000
v 17 1 -13 0.000000 0.000000 0.000000
v 16 1 -13 0.000000 0.000000 0.000000
v 18 0 -12 0.000000 0.000000 0.000000
v 18 1 -12 0.000000 0.000000 0.000000
v 18 0 -13 0.000000 0.000000 0.000000
v 18 1 -13 0.000000 0.000000 0.000000
v 17 0 -14 0.000000 0.000000 0.000000
v 16 0 -14 0.000000 0.000000 0.000000
v 16 1 -14 0.000000 0.000000 0.000000
v 17 1 -14 0.000000 0.000000 0.000000
v 18 0 -14 0.000000 0.000000 0.000000
v 18 1 -14 0.000000 0.000000 0.000000
v 16 1 -11 0.000000 0.000000 0.000000
v 17 1 -11 0.000000 0.000000 0.000000
v 17 2 -11 0.000000 0.000000 0.000000
v 16 2 -11 0.000000 0.000000 0.000000
v 16 2 -12 0.000000 0.000000 0.000000
v 17 2 -12 0.000000 0.000000 0.000000
v 18 1 -11 0.000000 0.000000 0.000000
v 18 2 -11 0.000000 0.000000 0.000000
v 18 2 -12 0.000000 0.000000 0.000000
v 18 2 -13 0.000000 0.000000 0.000000
v 17 2 -13 0.000000 0.000000 0.000000
v 18 2 -14 0.000000 0.000000 0.000000
v 17 2 -14 0.000000 0.000000 0.000000
v 16 2 -14 0.000000 0.000000 0.000000
v 17 1 -15 0.000000 0.000000 0.000000
v 16 1 -15 0.000000 0.000000 0.000000
v 16 2 -15 0.000000 0.000000 0.000000
v 17 2 -15 0.000000 0.000000 0.000000
v 18 1 -15 0.000000 0.000000 0.000000
v 18 2 -15 0.000000 0.000000 0.000000
v 17 2 -6 0.984314 0.949020 0.211765
v 17 3 -6 0.984314 0.949020 0.211765
v 16 2 -7 0.984314 0.949020 0.211765
v 17 2 -7 0.984314 0.949020 0.211765
v 17 3 -7 0.984314 0.949020 0.211765
v 16 2 -8 0.984314 0.949020 0.211765
v 17 2 -8 0.984314 0.949020 0.211765
v 17 3 -8 0.984314 0.949020 0.211765
v 17 2 -9 0.874510 0.443137 0.149020
v 17 2 -8 0.874510 0.443137 0.149020
v 18 2 -8 0.984314 0.949020 0.211765
v 18 3 -8 0.984314 0.949020 0.211765
v 17 2 -9 0.984314 0.949020 0.211765
v 18 2 -9 0.984314 0.949020 0.211765
v 18 3 -9 0.984314 0.949020 0.211765
v 17 2 -10 0.874510 0.443137 0.149020
v 17 2 -10 0.984314 0.949020 0.211765
v 18 2 -10 0.984314 0.949020 0.211765
v 18 3 -10 0.984314 0.949020 0.211765
v 17 2 -11 0.874510 0.443137 0.149020
v 17 2 -11 0.984314 0.949020 0.211765
v 18 2 -11 0.984314 0.949020 0.211765
v 18 3 -11 0.984314 0.949020 0.211765
v 18 3 -12 0.000000 0.000000 0.000000
v 18 3 -11 0.000000 0.000000 0.000000
v 17 2 -13 0.874510 0.443137 0.149020
v 17 2 -12 0.874510 0.443137 0.149020
v 18 3 -13 0.000000 0.000000 0.000000
v 17 2 -14 0.874510 0.443137 0.149020
v 18 3 -14 0.000000 0.000000 0.000000
v 17 3 -15 0.000000 0.000000 0.000000
v 18 3 -15 0.000000 0.000000 0.000000
v 17 3 -14 0.000000 0.000000 0.000000
v 17 2 -16 0.984314 0.949020 0.211765
v 17 3 -16 0.984314 0.949020 0.211765
v 16 2 -15 0.984314 0.949020 0.211765
v 17 2 -15 0.984314 0.949020 0.211765
v 17 3 -15 0.984314 0.949020 0.211765
v 17 4 -6 0.984314 0.949020 0.211765
v 17 4 -7 0.984314 0.949020 0.211765
v 17 4 -8 0.984314 0.949020 0.211765
v 18 4 -8 0.984314 0.949020 0.211765
v 18 4 -9 0.984314 0.949020 0.211765
v 17 4 -9 0.984314 0.949020 0.211765
v 18 4 -10 0.984314 0.949020 0.211765
v 17 4 -10 0.984314 0.949020 0.211765
v 18 4 -11 0.984314 0.949020 0.211765
v 17 4 -11 0.984314 0.949020 0.211765
v 18 4 -12 0.984314 0.949020 0.211765
v 17 4 -12 0.984314 0.949020 0.211765
v 18 3 -12 0.984314 0.949020 0.211765
v 18 4 -12 0.000000 0.000000 0.000000
v 18 4 -13 0.000000 0.000000 0.000000
v 17 4 -13 0.000000 0.000000 0.000000
v 17 4 -12 0.000000 0.000000 0.000000
v 17 4 -14 0.000000 0.000000 0.000000
v 18 4 -14 0.000000 0.000000 0.000000
v 17 4 -14 0.984314 0.949020 0.211765
v 17 4 -15 0.984314 0.949020 0.211765
v 17 3 -14 0.984314 0.949020 0.211765
v 17 4 -16 0.984314 0.949020 0.211765
v 17 5 -8 0.984314 0.949020 0.211765
v 17 5 -9 0.984314 0.949020 0.211765
v 17 5 -10 0.984314 0.949020 0.211765
v 17 5 -11 0.984314 0.949020 0.211765
v 17 5 -12 0.984314 0.949020 0.211765
v 17 5 -13 0.984314 0.949020 0.211765
v 17 4 -13 0.984314 0.949020 0.211765
v 17 5 -14 0.984314 0.949020 0.211765
vn 0 0 -1
vn 0 -1 0
vn -1 0 0
vn 1 0 0
vn 0 0 -1
vn 0 -1 0
vn -1 0 0
vn 1 0 0
vn 0 1 0
vn 0 0 1
vn 0 0 -1
vn 0 -1 0
vn 1 0 0
vn -1 0 0
vn 0 1 0
vn 0 0 1
vn 0 0 1
vn 0 0 1
vn -1 0 0
vn 1 0 0
f 1//1 2//1 3//1 4//1
f 5//2 2//2 1//2 6//2
f 5//3 7//3 3//3 2//3
f 8//1 1//1 4//1 9//1
f 6//2 1//2 8//2 10//2
f 11//1 8//1 9//1 12//1
f 10//2 8//2 11//2 13//2
f 14//1 11//1 12//1 15//1
f 13//2 11//2 14//2 16//2
f 16//4 14//4 15//4 17//4
f 18//5 19//5 20//5 21//5
f 22//6 19//6 18//6 23//6
f 22//7 24//7 20//7 19//7
f 25//2 26//2 27//2 28//2
f 28//2 27//2 29//2 30//2
f 30//2 29//2 3//2 7//2
f 17//2 15//2 31//2 32//2
f 32//2 31//2 33//2 34//2
f 34//2 33//2 35//2 36//2
f 37//5 38//5 39//5 40//5
f 41//6 38//6 37//6 42//6
f 42//8 37//8 40//8 43//8
f 44//5 45//5 46//5 47//5
f 18//6 45//6 44//6 48//6
f 18//7 21//7 46//7 45//7
f 49//5 44//5 47//5 50//5
f 48//6 44//6 49//6 51//6
f 29//2 52//2 53//2 3//2
f 3//2 53//2 54//2 4//2
f 4//2 54//2 55//2 9//2
f 9//2 55//2 56//2 12//2
f 12//2 56//2 57//2 15//2
f 15//2 57//2 58//2 31//2
f 59//5 60//5 61//5 62//5
f 63//6 60//6 59//6 64//6
f 65//5 59//5 62//5 66//5
f 64//6 59//6 65//6 38//6
f 38//8 65//8 66//8 39//8
f 67//5 68//5 69//5 70//5
f 49//6 68//6 67//6 71//6
f 49//7 50//7 69//7 68//7
f 72//5 67//5 70//5 73//5
f 71//6 67//6 72//6 74//6
f 75//5 72//5 73//5 76//5
f 74//6 72//6 75//6 77//6
f 78//5 75//5 76//5 79//5
f 77//6 75//6 78//6 80//6
f 81//5 78//5 79//5 82//5
f 80//6 78//6 81//6 83//6
f 84//5 81//5 82//5 85//5
f 83//6 81//6 84//6 60//6
f 60//8 84//8 85//8 61//8
f 21//5 20//5 86//5 87//5
f 88//9 87//9 86//9 89//9
f 24//7 89//7 86//7 20//7
f 90//9 91//9 87//9 88//9
f 92//9 93//9 94//9 95//9
f 40//5 39//5 93//5 96//5
f 97//9 96//9 93//9 92//9
f 43//8 40//8 96//8 97//8
f 47//5 46//5 98//5 99//5
f 91//9 99//9 98//9 87//9
f 21//7 87//7 98//7 46//7
f 50//5 47//5 99//5 100//5
f 101//9 100//9 99//9 91//9
f 62//5 61//5 102//5 103//5
f 94//9 103//9 102//9 104//9
f 66//5 62//5 103//5 105//5
f 93//9 105//9 103//9 94//9
f 39//8 66//8 105//8 93//8
f 70//5 69//5 106//5 107//5
f 108//9 107//9 106//9 100//9
f 50//7 100//7 106//7 69//7
f 73//5 70//5 107//5 109//5
f 110//9 109//9 107//9 108//9
f 76//5 73//5 109//5 111//5
f 112//9 111//9 109//9 110//9
f 79//5 76//5 111//5 113//5
f 114//9 113//9 111//9 112//9
f 82//5 79//5 113//5 115//5
f 116//9 115//9 113//9 114//9
f 85//5 82//5 115//5 117//5
f 102//9 117//9 115//9 116//9
f 61//8 85//8 117//8 102//8
f 101//5 91//5 118//5 119//5
f 120//9 119//9 118//9 121//9
f 90//7 121//7 118//7 91//7
f 122//9 123//9 119//9 120//9
f 124//9 125//9 123//9 122//9
f 126//9 127//9 125//9 124//9
f 128//9 129//9 127//9 126//9
f 130//9 131//9 129//9 128//9
f 132//9 133//9 131//9 130//9
f 94//5 104//5 133//5 134//5
f 135//9 134//9 133//9 132//9
f 95//8 94//8 134//8 135//8
f 108//5 100//5 136//5 137//5
f 123//9 137//9 136//9 119//9
f 101//7 119//7 136//7 100//7
f 110//5 108//5 137//5 138//5
f 125//9 138//9 137//9 123//9
f 112//5 110//5 138//5 139//5
f 127//9 139//9 138//9 125//9
f 114//5 112//5 139//5 140//5
f 129//9 140//9 139//9 127//9
f 116//5 114//5 140//5 141//5
f 131//9 141//9 140//9 129//9
f 102//5 116//5 141//5 142//5
f 133//9 142//9 141//9 131//9
f 104//8 102//8 142//8 133//8
f 143//10 144//10 145//10 146//10
f 147//11 148//11 149//11 150//11
f 143//12 148//12 147//12 144//12
f 144//13 147//13 150//13 145//13
f 143//14 146//14 149//14 148//14
f 151//10 152//10 153//10 154//10
f 155//11 156//11 157//11 158//11
f 151//12 156//12 155//12 152//12
f 152//13 155//13 158//13 153//13
f 151//14 154//14 157//14 156//14
f 159//10 160//10 161//10 162//10
f 159//12 163//12 164//12 160//12
f 159//14 162//14 165//14 163//14
f 160//10 166//10 167//10 161//10
f 160//12 164//12 168//12 166//12
f 167//15 169//15 170//15 161//15
f 166//13 168//13 169//13 167//13
f 171//11 172//11 173//11 174//11
f 163//12 172//12 171//12 164//12
f 163//14 165//14 173//14 172//14
f 175//11 171//11 174//11 176//11
f 164//12 171//12 175//12 168//12
f 169//15 176//15 174//15 170//15
f 168//13 175//13 176//13 169//13
f 177//10 178//10 179//10 180//10
f 177//12 146//12 145//12 178//12
f 178//13 145//13 181//13 179//13
f 177//14 180//14 182//14 146//14
f 183//10 184//10 185//10 186//10
f 183//12 154//12 153//12 184//12
f 184//13 153//13 187//13 185//13
f 183//14 186//14 188//14 154//14
f 145//13 150//13 189//13 181//13
f 146//14 182//14 190//14 149//14
f 191//16 192//16 193//16 194//16
f 191//2 195//2 196//2 192//2
f 191//3 194//3 197//3 195//3
f 192//16 198//16 199//16 193//16
f 192//2 196//2 200//2 198//2
f 198//16 201//16 202//16 199//16
f 198//2 200//2 203//2 201//2
f 201//16 204//16 205//16 202//16
f 201//2 203//2 206//2 204//2
f 204//4 206//4 207//4 205//4
f 153//13 158//13 208//13 187//13
f 154//14 188//14 209//14 157//14
f 149//12 210//12 211//12 150//12
f 149//14 190//14 212//14 210//14
f 213//16 195//16 197//16 214//16
f 213//2 215//2 216//2 195//2
f 195//2 216//2 217//2 196//2
f 196//2 217//2 218//2 200//2
f 200//2 218//2 219//2 203//2
f 203//2 219//2 220//2 206//2
f 206//16 221//16 222//16 207//16
f 206//2 220//2 223//2 221//2
f 157//12 224//12 225//12 158//12
f 158//13 225//13 226//13 208//13
f 227//16 228//16 229//16 230//16
f 227//2 231//2 232//2 228//2
f 227//3 230//3 233//3 231//3
f 228//2 232//2 234//2 215//2
f 215//2 234//2 235//2 216//2
f 216//2 235//2 236//2 217//2
f 217//2 236//2 237//2 218//2
f 218//2 237//2 238//2 219//2
f 219//2 238//2 239//2 220//2
f 220//2 239//2 240//2 223//2
f 223//2 240//2 241//2 242//2
f 242//16 243//16 244//16 245//16
f 242//2 241//2 246//2 243//2
f 243//4 246//4 247//4 244//4
f 231//2 248//2 249//2 232//2
f 231//3 233//3 250//3 248//3
f 232//2 249//2 251//2 234//2
f 234//2 251//2 252//2 235//2
f 235//2 252//2 253//2 236//2
f 236//2 253//2 254//2 237//2
f 237//2 254//2 255//2 238//2
f 238//2 255//2 256//2 239//2
f 239//2 256//2 257//2 240//2
f 240//2 257//2 258//2 241//2
f 241//2 258//2 259//2 246//2
f 246//4 259//4 260//4 247//4
f 261//16 248//16 250//16 262//16
f 261//2 263//2 264//2 248//2
f 261//3 262//3 265//3 263//3
f 248//2 264//2 266//2 249//2
f 249//2 266//2 267//2 251//2
f 251//2 267//2 268//2 252//2
f 252//2 268//2 269//2 253//2
f 253//2 269//2 270//2 254//2
f 254//2 270//2 271//2 255//2
f 255//2 271//2 272//2 256//2
f 256//2 272//2 273//2 257//2
f 257//2 273//2 274//2 258//2
f 258//2 274//2 275//2 259//2
f 259//16 276//16 277//16 260//16
f 259//2 275//2 278//2 276//2
f 276//4 278//4 279//4 277//4
f 263//2 280//2 281//2 264//2
f 263//3 265//3 282//3 280//3
f 264//2 281//2 283//2 266//2
f 266//2 283//2 284//2 267//2
f 267//2 284//2 285//2 268//2
f 268//2 285//2 286//2 269//2
f 269//2 286//2 287//2 270//2
f 270//2 287//2 288//2 271//2
f 271//2 288//2 289//2 272//2
f 272//2 289//2 290//2 273//2
f 273//2 290//2 291//2 274//2
f 274//2 291//2 292//2 275//2
f 275//2 292//2 293//2 278//2
f 278//4 293//4 294//4 279//4
f 295//10 296//10 297//10 298//10
f 295//12 162//12 161//12 296//12
f 295//14 298//14 299//14 162//14
f 296//10 300//10 301//10 297//10
f 167//11 161//11 302//11 303//11
f 296//12 161//12 167//12 300//12
f 280//2 304//2 305//2 281//2
f 281//2 305//2 306//2 283//2
f 283//2 306//2 307//2 284//2
f 284//2 307//2 308//2 285//2
f 285//2 308//2 309//2 286//2
f 286//2 309//2 310//2 287//2
f 287//2 310//2 311//2 288//2
f 288//2 311//2 312//2 289//2
f 289//2 312//2 313//2 290//2
f 290//2 313//2 314//2 291//2
f 291//2 314//2 315//2 292//2
f 292//2 315//2 316//2 293//2
f 161//13 170//13 317//13 302//13
f 162//14 299//14 318//14 165//14
f 319//1 320//1 321//1 322//1
f 304//2 320//2 319//2 305//2
f 304//3 323//3 321//3 320//3
f 305//2 319//2 324//2 306//2
f 306//2 324//2 325//2 307//2
f 307//2 325//2 326//2 308//2
f 308//2 326//2 327//2 309//2
f 309//2 327//2 328//2 310//2
f 310//2 328//2 329//2 311//2
f 311//2 329//2 330//2 312//2
f 312//2 330//2 331//2 313//2
f 313//2 331//2 332//2 314//2
f 314//2 332//2 333//2 315//2
f 334//1 333//1 335//1 336//1
f 315//2 333//2 334//2 316//2
f 316//4 334//4 336//4 337//4
f 170//13 174//13 338//13 317//13
f 165//14 318//14 339//14 173//14
f 319//2 340//2 341//2 324//2
f 319//3 322//3 342//3 340//3
f 324//2 341//2 343//2 325//2
f 325//2 343//2 344//2 326//2
f 326//2 344//2 345//2 327//2
f 327//2 345//2 346//2 328//2
f 328//2 346//2 347//2 329//2
f 329//2 347//2 348//2 330//2
f 330//2 348//2 349//2 331//2
f 331//2 349//2 350//2 332//2
f 332//2 350//2 351//2 333//2
f 333//4 351//4 352//4 335//4
f 353//11 354//11 355//11 356//11
f 173//12 354//12 353//12 174//12
f 173//14 339//14 355//14 354//14
f 174//10 176//10 357//10 338//10
f 358//11 353//11 356//11 359//11
f 174//12 353//12 358//12 176//12
f 176//13 358//13 359//13 357//13
f 360//1 361//1 362//1 363//1
f 340//2 361//2 360//2 341//2
f 340//3 342//3 362//3 361//3
f 341//2 360//2 364//2 343//2
f 343//2 364//2 365//2 344//2
f 344//2 365//2 366//2 345//2
f 345//2 366//2 367//2 346//2
f 346//2 367//2 368//2 347//2
f 347//2 368//2 369//2 348//2
f 348//2 369//2 370//2 349//2
f 349//2 370//2 371//2 350//2
f 372//1 371//1 373//1 374//1
f 350//2 371//2 372//2 351//2
f 351//4 372//4 374//4 352//4
f 375//1 376//1 28//1 30//1
f 360//2 376//2 375//2 364//2
f 360//3 363//3 28//3 376//3
f 5//1 375//1 30//1 7//1
f 364//2 375//2 5//2 365//2
f 365//2 5//2 6//2 366//2
f 366//2 6//2 10//2 367//2
f 367//2 10//2 13//2 368//2
f 368//2 13//2 16//2 369//2
f 377//1 16//1 17//1 32//1
f 369//2 16//2 377//2 370//2
f 378//1 377//1 32//1 34//1
f 370//2 377//2 378//2 371//2
f 371//4 378//4 34//4 373//4
f 379//10 380//10 381//10 382//10
f 379//12 179//12 383//12 380//12
f 379//14 382//14 384//14 179//14
f 380//10 385//10 386//10 381//10
f 380//12 383//12 387//12 385//12
f 385//10 388//10 389//10 386//10
f 385//12 387//12 390//12 388//12
f 388//10 391//10 392//10 389//10
f 388//12 390//12 393//12 391//12
f 391//10 394//10 395//10 392//10
f 391//12 393//12 396//12 394//12
f 394//10 397//10 398//10 395//10
f 394//12 396//12 186//12 397//12
f 397//13 186//13 399//13 398//13
f 400//17 401//17 402//17 403//17
f 400//6 404//6 405//6 401//6
f 400//7 403//7 406//7 404//7
f 180//10 179//10 384//10 407//10
f 408//2 409//2 194//2 410//2
f 410//2 194//2 193//2 411//2
f 411//2 193//2 199//2 412//2
f 412//2 199//2 202//2 413//2
f 413//2 202//2 205//2 414//2
f 414//2 205//2 415//2 416//2
f 186//10 185//10 417//10 399//10
f 418//17 419//17 420//17 421//17
f 418//6 422//6 423//6 419//6
f 419//8 423//8 424//8 420//8
f 425//17 404//17 406//17 426//17
f 425//6 427//6 428//6 404//6
f 425//7 426//7 429//7 427//7
f 430//2 431//2 432//2 433//2
f 409//2 214//2 197//2 194//2
f 205//2 207//2 222//2 415//2
f 434//2 435//2 436//2 437//2
f 423//17 438//17 439//17 424//17
f 423//6 440//6 441//6 438//6
f 438//8 441//8 442//8 439//8
f 443//17 427//17 429//17 444//17
f 443//6 445//6 446//6 427//6
f 443//7 444//7 447//7 445//7
f 448//2 449//2 230//2 431//2
f 431//2 230//2 229//2 432//2
f 435//2 245//2 244//2 436//2
f 436//2 244//2 450//2 451//2
f 445//6 452//6 453//6 446//6
f 445//7 447//7 454//7 452//7
f 449//2 455//2 233//2 230//2
f 244//2 247//2 456//2 450//2
f 457//17 452//17 454//17 458//17
f 457//6 459//6 460//6 452//6
f 457//7 458//7 461//7 459//7
f 462//2 463//2 262//2 455//2
f 455//2 262//2 250//2 233//2
f 247//2 260//2 277//2 456//2
f 459//6 464//6 465//6 460//6
f 459//7 461//7 466//7 464//7
f 463//2 467//2 265//2 262//2
f 464//6 468//6 469//6 465//6
f 464//7 466//7 470//7 468//7
f 467//2 471//2 282//2 265//2
f 298//14 472//14 473//14 299//14
f 299//14 473//14 474//14 318//14
f 475//2 476//2 321//2 323//2
f 318//14 474//14 477//14 339//14
f 476//2 478//2 479//2 321//2
f 321//2 479//2 342//2 322//2
f 335//2 352//2 480//2 336//2
f 356//11 355//11 481//11 482//11
f 483//15 482//15 481//15 477//15
f 339//14 477//14 481//14 355//14
f 479//2 484//2 362//2 342//2
f 352//2 374//2 485//2 480//2
f 22//5 486//5 487//5 24//5
f 488//6 486//6 22//6 489//6
f 488//7 490//7 487//7 486//7
f 484//2 491//2 25//2 362//2
f 362//2 25//2 28//2 363//2
f 373//2 34//2 36//2 374//2
f 374//2 36//2 492//2 485//2
f 382//10 381//10 493//10 494//10
f 493//15 495//15 496//15 494//15
f 382//14 494//14 496//14 384//14
f 381//10 386//10 497//10 493//10
f 497//15 498//15 495//15 493//15
f 386//10 389//10 499//10 497//10
f 499//15 500//15 498//15 497//15
f 389//10 392//10 501//10 499//10
f 501//15 502//15 500//15 499//15
f 392//10 395//10 503//10 501//10
f 503//15 504//15 502//15 501//15
f 395//10 398//10 505//10 503//10
f 505//15 506//15 504//15 503//15
f 398//13 399//13 506//13 505//13
f 403//17 402//17 507//17 508//17
f 507//9 509//9 510//9 508//9
f 403//7 508//7 510//7 406//7
f 407//10 384//10 496//10 511//10
f 496//15 512//15 513//15 511//15
f 399//10 417//10 514//10 506//10
f 514//15 515//15 516//15 506//15
f 421//17 420//17 517//17 518//17
f 517//9 519//9 520//9 518//9
f 420//8 424//8 519//8 517//8
f 426//17 406//17 510//17 521//17
f 510//9 522//9 523//9 521//9
f 426//7 521//7 523//7 429//7
f 509//9 524//9 522//9 510//9
f 519//9 525//9 526//9 520//9
f 424//17 439//17 527//17 519//17
f 527//9 528//9 525//9 519//9
f 439//8 442//8 528//8 527//8
f 444//17 429//17 523//17 529//17
f 523//9 530//9 531//9 529//9
f 444//7 529//7 531//7 447//7
f 522//9 532//9 530//9 523//9
f 528//9 533//9 534//9 525//9
f 530//9 535//9 536//9 531//9
f 447//7 531//7 536//7 454//7
f 458//17 454//17 536//17 537//17
f 536//9 538//9 539//9 537//9
f 458//7 537//7 539//7 461//7
f 538//9 540//9 541//9 539//9
f 461//7 539//7 541//7 466//7
f 540//9 542//9 543//9 541//9
f 466//7 541//7 543//7 470//7
f 542//9 544//9 545//9 543//9
f 470//7 543//7 545//7 546//7
f 547//15 548//15 549//15 550//15
f 473//14 550//14 549//14 474//14
f 483//11 477//11 551//11 552//11
f 548//15 552//15 551//15 549//15
f 474//14 549//14 551//14 477//14
f 553//9 554//9 555//9 556//9
f 557//7 556//7 555//7 490//7
f 24//5 487//5 558//5 89//5
f 554//9 89//9 558//9 555//9
f 490//7 555//7 558//7 487//7
f 559//9 88//9 89//9 554//9
f 560//9 97//9 92//9 561//9
f 496//10 495//10 562//10 563//10
f 562//15 564//15 565//15 563//15
f 496//14 563//14 565//14 512//14
f 495//10 498//10 566//10 562//10
f 566//15 567//15 564//15 562//15
f 498//10 500//10 568//10 566//10
f 568//15 569//15 567//15 566//15
f 500//10 502//10 570//10 568//10
f 570//15 571//15 569//15 568//15
f 502//10 504//10 572//10 570//10
f 572//15 573//15 571//15 570//15
f 504//10 506//10 574//10 572//10
f 574//15 575//15 573//15 572//15
f 506//13 516//13 575//13 574//13
f 513//10 512//10 565//10 576//10
f 565//15 577//15 578//15 576//15
f 513//14 576//14 578//14 579//14
f 564//15 580//15 577//15 565//15
f 567//15 581//15 580//15 564//15
f 569//15 582//15 581//15 567//15
f 571//15 583//15 582//15 569//15
f 573//15 584//15 583//15 571//15
f 575//15 585//15 584//15 573//15
f 516//10 515//10 586//10 575//10
f 586//15 587//15 585//15 575//15
f 515//13 588//13 587//13 586//13
f 522//17 524//17 589//17 590//17
f 589//9 591//9 592//9 590//9
f 522//7 590//7 592//7 532//7
f 593//9 594//9 591//9 589//9
f 580//15 595//15 596//15 577//15
f 585//15 597//15 598//15 584//15
f 599//9 600//9 601//9 602//9
f 526//17 525//17 603//17 599//17
f 603//9 604//9 600//9 599//9
f 525//8 534//8 604//8 603//8
f 530//17 532//17 592//17 605//17
f 592//9 606//9 607//9 605//9
f 530//7 605//7 607//7 535//7
f 591//9 608//9 606//9 592//9
f 604//9 609//9 610//9 600//9
f 534//17 533//17 611//17 604//17
f 611//9 612//9 609//9 604//9
f 533//8 613//8 612//8 611//8
f 536//17 535//17 607//17 614//17
f 607//9 615//9 616//9 614//9
f 536//7 614//7 616//7 538//7
f 606//9 617//9 615//9 607//9
f 608//9 618//9 617//9 606//9
f 609//9 619//9 620//9 610//9
f 612//9 621//9 619//9 609//9
f 615//9 622//9 623//9 616//9
f 538//7 616//7 623//7 540//7
f 617//9 624//9 622//9 615//9
f 621//9 625//9 626//9 619//9
f 622//9 627//9 628//9 623//9
f 540//7 623//7 628//7 542//7
f 624//9 629//9 627//9 622//9
f 625//9 630//9 631//9 626//9
f 627//9 632//9 633//9 628//9
f 542//7 628//7 633//7 544//7
f 629//9 634//9 632//9 627//9
f 630//9 635//9 636//9 631//9
f 632//9 637//9 638//9 633//9
f 544//7 633//7 638//7 639//7
f 634//9 640//9 637//9 632//9
f 635//9 641//9 642//9 636//9
f 553//5 556//5 643//5 644//5
f 637//9 644//9 643//9 638//9
f 639//7 638//7 643//7 556//7
f 640//9 645//9 644//9 637//9
f 646//9 647//9 645//9 640//9
f 642//9 648//9 649//9 650//9
f 641//9 651//9 648//9 642//9
f 559//5 554//5 652//5 653//5
f 645//9 653//9 652//9 644//9
f 553//7 644//7 652//7 554//7
f 647//9 654//9 653//9 645//9
f 648//9 655//9 656//9 649//9
f 560//5 561//5 655//5 657//5
f 651//9 657//9 655//9 648//9
f 658//8 560//8 657//8 651//8
f 90//5 88//5 659//5 121//5
f 654//9 121//9 659//9 653//9
f 559//7 653//7 659//7 88//7
f 660//9 120//9 121//9 654//9
f 661//9 122//9 120//9 660//9
f 662//9 132//9 130//9 663//9
f 656//9 135//9 132//9 662//9
f 92//5 95//5 135//5 664//5
f 655//9 664//9 135//9 656//9
f 561//8 92//8 664//8 655//8
f 580//10 581//10 665//10 666//10
f 665//15 667//15 668//15 666//15
f 580//14 666//14 668//14 595//14
f 581//10 582//10 669//10 665//10
f 669//15 670//15 667//15 665//15
f 582//10 583//10 671//10 669//10
f 671//15 672//15 670//15 669//15
f 583//10 584//10 673//10 671//10
f 673//15 674//15 672//15 671//15
f 584//13 598//13 674//13 673//13
f 591//17 594//17 675//17 676//17
f 675//9 677//9 678//9 676//9
f 591//7 676//7 678//7 608//7
f 596//10 595//10 668//10 679//10
f 668//15 680//15 681//15 679//15
f 667//15 682//15 680//15 668//15
f 674//15 683//15 684//15 672//15
f 598//10 597//10 685//10 674//10
f 685//15 686//15 683//15 674//15
f 601//17 600//17 687//17 688//17
f 687//9 689//9 690//9 688//9
f 600//8 610//8 689//8 687//8
f 677//9 691//9 692//9 678//9
f 608//7 678//7 692//7 618//7
f 693//9 694//9 691//9 677//9
f 690//9 695//9 696//9 697//9
f 689//9 698//9 695//9 690//9
f 610//8 620//8 698//8 689//8
f 617//17 618//17 692//17 699//17
f 692//9 700//9 701//9 699//9
f 617//7 699//7 701//7 624//7
f 691//9 702//9 700//9 692//9
f 694//9 703//9 702//9 691//9
f 695//9 704//9 705//9 696//9
f 698//9 706//9 704//9 695//9
f 620//17 619//17 707//17 698//17
f 707//9 708//9 706//9 698//9
f 619//8 626//8 708//8 707//8
f 700//9 709//9 710//9 701//9
f 624//7 701//7 710//7 629//7
f 702//9 711//9 709//9 700//9
f 703//9 712//9 711//9 702//9
f 713//9 714//9 712//9 703//9
f 705//9 715//9 716//9 717//9
f 704//9 718//9 715//9 705//9
f 706//9 719//9 718//9 704//9
f 708//9 720//9 719//9 706//9
f 626//8 631//8 720//8 708//8
f 709//9 721//9 722//9 710//9
f 629//7 710//7 722//7 634//7
f 711//9 723//9 721//9 709//9
f 712//9 724//9 723//9 711//9
f 714//9 725//9 724//9 712//9
f 726//9 727//9 725//9 714//9
f 716//9 728//9 727//9 726//9
f 715//9 729//9 728//9 716//9
f 718//9 730//9 729//9 715//9
f 719//9 731//9 730//9 718//9
f 720//9 732//9 731//9 719//9
f 631//8 636//8 732//8 720//8
f 646//5 640//5 733//5 734//5
f 721//9 734//9 733//9 722//9
f 634//7 722//7 733//7 640//7
f 723//9 735//9 734//9 721//9
f 724//9 736//9 735//9 723//9
f 725//9 737//9 736//9 724//9
f 727//9 738//9 737//9 725//9
f 728//9 739//9 738//9 727//9
f 729//9 740//9 739//9 728//9
f 730//9 741//9 740//9 729//9
f 731//9 742//9 741//9 730//9
f 642//5 650//5 742//5 743//5
f 732//9 743//9 742//9 731//9
f 636//8 642//8 743//8 732//8
f 735//9 744//9 745//9 734//9
f 646//7 734//7 745//7 647//7
f 736//9 746//9 744//9 735//9
f 737//9 747//9 746//9 736//9
f 738//9 748//9 747//9 737//9
f 739//9 749//9 748//9 738//9
f 740//9 750//9 749//9 739//9
f 741//9 751//9 750//9 740//9
f 742//9 752//9 751//9 741//9
f 650//8 649//8 752//8 742//8
f 660//5 654//5 753//5 754//5
f 744//9 754//9 753//9 745//9
f 647//7 745//7 753//7 654//7
f 661//5 660//5 754//5 755//5
f 746//9 755//9 754//9 744//9
f 747//9 756//9 755//9 746//9
f 748//9 757//9 756//9 747//9
f 749//9 758//9 757//9 748//9
f 750//9 759//9 758//9 749//9
f 662//5 663//5 759//5 760//5
f 751//9 760//9 759//9 750//9
f 656//5 662//5 760//5 761//5
f 752//9 761//9 760//9 751//9
f 649//8 656//8 761//8 752//8
f 124//5 122//5 762//5 763//5
f 756//9 763//9 762//9 755//9
f 661//7 755//7 762//7 122//7
f 126//5 124//5 763//5 764//5
f 757//9 764//9 763//9 756//9
f 128//5 126//5 764//5 765//5
f 758//9 765//9 764//9 757//9
f 130//5 128//5 765//5 766//5
f 759//9 766//9 765//9 758//9
f 663//8 130//8 766//8 759//8
f 767//18 768//18 769//18 770//18
f 767//19 770//19 771//19 772//19
f 768//18 773//18 774//18 769//18
f 773//20 775//20 776//20 774//20
f 680//10 682//10 777//10 778//10
f 680//14 778//14 779//14 780//14
f 684//10 683//10 781//10 782//10
f 683//13 783//13 784//13 781//13
f 785//11 786//11 787//11 788//11
f 780//14 779//14 787//14 786//14
f 789//11 790//11 791//11 792//11
f 783//13 789//13 792//13 784//13
f 793//11 794//11 795//11 796//11
f 785//14 788//14 795//14 794//14
f 797//11 793//11 796//11 798//11
f 790//13 797//13 798//13 791//13
f 799//10 800//10 801//10 802//10
f 801//15 803//15 804//15 802//15
f 799//14 802//14 804//14 777//14
f 800//10 805//10 806//10 801//10
f 806//15 807//15 803//15 801//15
f 805//13 782//13 807//13 806//13
f 778//10 777//10 804//10 808//10
f 804//15 809//15 810//15 808//15
f 778//14 808//14 810//14 779//14
f 803//15 811//15 809//15 804//15
f 807//15 812//15 811//15 803//15
f 782//10 781//10 813//10 807//10
f 813//15 814//15 812//15 807//15
f 781//13 784//13 814//13 813//13
f 788//11 787//11 815//11 816//11
f 809//15 816//15 815//15 810//15
f 779//14 810//14 815//14 787//14
f 811//15 817//15 816//15 809//15
f 812//15 818//15 817//15 811//15
f 792//11 791//11 818//11 819//11
f 814//15 819//15 818//15 812//15
f 784//13 792//13 819//13 814//13
f 796//11 795//11 820//11 821//11
f 817//15 821//15 820//15 816//15
f 788//14 816//14 820//14 795//14
f 798//11 796//11 821//11 822//11
f 818//15 822//15 821//15 817//15
f 791//13 798//13 822//13 818//13
f 823//10 824//10 825//10 826//10
f 823//12 827//12 828//12 824//12
f 825//15 829//15 830//15 826//15
f 823//14 826//14 830//14 827//14
f 824//10 831//10 832//10 825//10
f 824//12 828//12 833//12 831//12
f 831//13 833//13 834//13 832//13
f 835//11 836//11 837//11 838//11
f 827//12 836//12 835//12 828//12
f 829//15 838//15 837//15 830//15
f 827//14 830//14 837//14 836//14
f 839//11 835//11 838//11 840//11
f 828//12 835//12 839//12 833//12
f 833//13 839//13 840//13 834//13
f 841//10 842//10 843//10 844//10
f 825//11 826//11 845//11 846//11
f 841//12 826//12 825//12 842//12
f 842//10 847//10 848//10 843//10
f 842//12 825//12 832//12 847//12
f 847//13 832//13 849//13 848//13
f 832//13 834//13 850//13 849//13
f 825//14 846//14 851//14 829//14
f 834//13 840//13 852//13 850//13
f 829//14 851//14 853//14 838//14
f 837//10 838//10 853//10 854//10
f 855//11 856//11 857//11 858//11
f 837//12 856//12 855//12 838//12
f 837//14 854//14 857//14 856//14
f 859//11 855//11 858//11 860//11
f 838//12 855//12 859//12 840//12
f 840//13 859//13 860//13 852//13
f 441//17 861//17 862//17 442//17
f 441//6 863//6 864//6 861//6
f 861//8 864//8 865//8 862//8
f 863//6 866//6 867//6 864//6
f 864//8 867//8 868//8 865//8
f 456//2 277//2 869//2 870//2
f 867//17 871//17 872//17 868//17
f 867//6 873//6 874//6 871//6
f 871//8 874//8 875//8 872//8
f 277//2 279//2 876//2 869//2
f 873//6 877//6 878//6 874//6
f 874//8 878//8 879//8 875//8
f 279//2 294//2 880//2 876//2
f 877//6 881//6 882//6 878//6
f 878//8 882//8 883//8 879//8
f 848//13 849//13 884//13 885//13
f 337//2 336//2 886//2 887//2
f 849//13 850//13 888//13 884//13
f 336//2 480//2 889//2 886//2
f 850//13 852//13 890//13 888//13
f 860//11 858//11 891//11 892//11
f 890//15 892//15 891//15 893//15
f 852//13 860//13 892//13 890//13
f 894//5 42//5 43//5 895//5
f 896//6 42//6 894//6 897//6
f 897//8 894//8 895//8 898//8
f 442//17 862//17 899//17 528//17
f 899//9 900//9 533//9 528//9
f 862//8 865//8 900//8 899//8
f 900//9 901//9 613//9 533//9
f 865//8 868//8 901//8 900//8
f 868//17 872//17 902//17 901//17
f 902//9 903//9 904//9 901//9
f 872//8 875//8 903//8 902//8
f 903//9 905//9 906//9 904//9
f 875//8 879//8 905//8 903//8
f 905//9 907//9 908//9 906//9
f 879//8 883//8 907//8 905//8
f 907//9 909//9 910//9 908//9
f 883//8 911//8 909//8 907//8
f 912//15 913//15 914//15 915//15
f 884//13 888//13 913//13 912//13
f 890//11 893//11 916//11 917//11
f 913//15 917//15 916//15 914//15
f 888//13 890//13 917//13 913//13
f 918//9 919//9 560//9 658//9
f 920//8 898//8 919//8 918//8
f 895//5 43//5 97//5 921//5
f 919//9 921//9 97//9 560//9
f 898//8 895//8 921//8 919//8
f 613//17 901//17 922//17 612//17
f 922//9 923//9 621//9 612//9
f 901//8 904//8 923//8 922//8
f 923//9 924//9 625//9 621//9
f 904//8 906//8 924//8 923//8
f 924//9 925//9 630//9 625//9
f 906//8 908//8 925//8 924//8
f 925//9 926//9 635//9 630//9
f 908//8 910//8 926//8 925//8
f 926//9 927//9 641//9 635//9
f 910//8 928//8 927//8 926//8
f 918//5 658//5 651//5 929//5
f 927//9 929//9 651//9 641//9
f 928//8 918//8 929//8 927//8
